<svg id="logo" xmlns="http://www.w3.org/2000/svg" xmlns:xlink="http://www.w3.org/1999/xlink" viewBox="0 0 16 16"><defs><style>.cls-1{fill-rule:evenodd;fill:url(#linear-gradient);}</style><linearGradient id="linear-gradient" x1="0.69" y1="15.31" x2="15.31" y2="0.69" gradientUnits="userSpaceOnUse"><stop offset="0" stop-color="#9945ff"/><stop offset="0.2" stop-color="#7962e7"/><stop offset="1" stop-color="#00d18c"/></linearGradient></defs><path class="cls-1" d="M2.89,11.68a.53.53,0,0,1,.4-.18H15.51a.27.27,0,0,1,.2.45l-2.6,2.86a.53.53,0,0,1-.4.18H.49a.27.27,0,0,1-.2-.45ZM15.71,9.29a.27.27,0,0,1-.2.45H3.29a.53.53,0,0,1-.4-.18L.29,6.71a.27.27,0,0,1,.2-.45H12.71a.53.53,0,0,1,.4.18ZM2.89,1.18A.53.53,0,0,1,3.29,1H15.51a.27.27,0,0,1,.2.45l-2.6,2.86a.53.53,0,0,1-.4.18H.49A.27.27,0,0,1,.29,4Z"/></svg>